<?xml version="1.0" standalone="no"?>
<!DOCTYPE svg PUBLIC "-//W3C//DTD SVG 20010904//EN"
 "http://www.w3.org/TR/2001/REC-SVG-20010904/DTD/svg10.dtd">
<svg version="1.0" xmlns="http://www.w3.org/2000/svg"
 width="382.000000pt" height="380.000000pt" viewBox="0 0 382.000000 380.000000"
 preserveAspectRatio="xMidYMid meet">

<g transform="translate(0.000000,380.000000) scale(0.100000,-0.100000)"
fill="#000000" stroke="none">
<path d="M1747 3680 c-331 -35 -659 -166 -924 -368 -94 -71 -264 -236 -311
-302 -192 -269 -287 -469 -346 -731 -141 -627 75 -1288 564 -1724 52 -47 227
-172 285 -206 285 -161 579 -240 897 -240 168 0 250 9 419 47 353 80 714 298
943 570 85 101 96 116 151 200 329 503 379 1142 133 1699 -43 97 -147 277
-186 322 -13 15 -35 44 -47 63 -12 19 -73 85 -134 146 -268 269 -587 434 -974
504 -130 23 -347 32 -470 20z m493 -75 c259 -49 505 -159 728 -324 92 -68 259
-232 323 -316 192 -251 315 -543 354 -840 31 -239 14 -474 -51 -697 -41 -140
-60 -191 -117 -306 -96 -192 -178 -304 -347 -472 -135 -133 -258 -221 -435
-309 -274 -136 -530 -190 -850 -178 -440 17 -830 186 -1138 492 -240 238 -391
498 -476 815 -29 109 -40 196 -47 371 -16 394 101 767 345 1099 68 93 265 289
353 353 232 166 476 268 758 318 133 23 467 20 600 -6z"/>
<path d="M2256 2948 c-3 -7 -7 -33 -9 -57 -4 -28 -12 -48 -24 -55 -10 -6 -51
-29 -91 -51 -85 -47 -278 -184 -286 -203 -16 -38 31 -92 79 -92 9 0 40 22 68
49 60 55 143 115 175 125 19 6 22 4 22 -21 0 -15 -10 -64 -21 -108 -37 -142
-44 -172 -99 -445 -22 -113 -50 -243 -60 -290 -23 -101 -60 -301 -71 -385 -4
-33 -12 -76 -18 -95 -5 -19 -12 -57 -15 -85 -2 -27 -10 -92 -16 -143 -6 -51
-9 -109 -6 -130 3 -20 5 -40 6 -43 1 -25 104 -100 126 -93 6 3 9 46 6 126 -3
67 0 143 6 172 6 28 16 92 22 141 6 50 15 113 20 140 6 28 19 97 30 154 22
112 31 132 59 124 20 -5 230 107 228 122 -1 5 7 9 18 8 38 -5 75 8 75 25 0 14
14 18 88 21 254 12 349 3 374 -33 15 -21 8 -90 -13 -133 -31 -65 -211 -241
-289 -284 -19 -11 -49 -30 -66 -42 -106 -74 -219 -129 -409 -199 -35 -12 -40
-18 -38 -43 2 -31 45 -82 81 -96 43 -17 236 68 426 187 217 135 395 307 424
409 32 113 -76 283 -213 334 -72 27 -186 45 -237 37 -67 -11 -85 10 -48 56 10
14 16 28 13 32 -4 3 2 13 13 20 10 8 16 17 12 21 -3 4 -25 -12 -47 -34 -23
-23 -43 -41 -45 -41 -11 0 29 64 58 93 17 18 40 44 49 60 10 15 22 27 27 27
14 0 12 -34 -2 -48 -9 -9 -9 -12 0 -12 7 0 20 10 30 22 9 12 41 44 70 72 71
68 164 191 199 263 37 77 39 176 5 241 -88 167 -242 217 -485 158 l-97 -23
-38 28 c-40 31 -60 36 -66 17z m569 -132 c40 -17 44 -37 21 -121 -33 -126
-123 -259 -310 -458 -162 -174 -166 -178 -251 -254 -107 -97 -127 -97 -105 -1
5 24 19 88 30 143 47 222 138 574 159 615 10 18 106 54 198 74 90 19 214 20
258 2z m-100 -526 c-10 -11 -20 -18 -23 -15 -3 3 3 14 13 25 10 11 20 18 23
15 3 -3 -3 -14 -13 -25z m-88 -416 c-3 -3 -12 -4 -19 -1 -8 3 -5 6 6 6 11 1
17 -2 13 -5z"/>
<path d="M2605 2150 c3 -5 8 -10 11 -10 2 0 4 5 4 10 0 6 -5 10 -11 10 -5 0
-7 -4 -4 -10z"/>
<path d="M1233 2095 c-21 -51 -144 -389 -158 -435 -6 -22 -6 -23 8 -10 8 8 36
74 62 145 25 72 62 172 81 224 37 100 43 159 7 76z"/>
<path d="M872 1997 c-51 -51 -92 -99 -92 -108 0 -18 171 -189 189 -189 19 0
-2 30 -78 109 -39 41 -71 78 -71 84 0 6 36 46 80 89 44 43 80 82 80 87 0 28
-25 11 -108 -72z"/>
<path d="M1360 2072 c0 -4 34 -44 75 -87 41 -44 74 -87 75 -96 0 -9 -34 -50
-75 -90 -70 -68 -90 -99 -64 -99 18 0 189 172 189 190 0 9 -40 55 -89 103 -80
79 -111 101 -111 79z"/>
</g>
</svg>
